<svg width="23" height="92" viewBox="0 0 23 92" fill="none" xmlns="http://www.w3.org/2000/svg">
<path d="M11.7469 44.5L13.2469 44.5L13.2469 44.5L11.7469 44.5ZM10.6862 91.0607C11.272 91.6465 12.2218 91.6465 12.8076 91.0607L22.3535 81.5147C22.9393 80.9289 22.9393 79.9792 22.3535 79.3934C21.7677 78.8076 20.818 78.8076 20.2322 79.3934L11.7469 87.8787L3.26162 79.3934C2.67584 78.8076 1.72609 78.8076 1.1403 79.3934C0.554516 79.9792 0.554516 80.9289 1.1403 81.5147L10.6862 91.0607ZM10.2468 4.1138e-06L10.2469 44.5L13.2469 44.5L13.2468 -4.1138e-06L10.2468 4.1138e-06ZM10.2469 44.5L10.2469 90L13.2469 90L13.2469 44.5L10.2469 44.5Z" fill="black"/>
</svg>
